<svg width="557" height="97" viewBox="0 0 557 97" fill="none" xmlns="http://www.w3.org/2000/svg">
<path d="M0 11.2846C0 6.73974 3.6843 3.05544 8.22913 3.05544H26.9084C31.4532 3.05544 35.1375 6.73974 35.1375 11.2846V42.3178C35.1375 44.2584 33.5644 45.8316 31.6238 45.8316C29.6832 45.8316 28.11 44.2584 28.11 42.3178V9.7774H7.0275V92.9269C7.0275 94.8675 5.45434 96.4407 3.51375 96.4407C1.57316 96.4407 0 94.8675 0 92.9269V11.2846Z" fill="white"/>
<path d="M57.1271 46.4426C54.9272 46.4426 52.8495 46.0352 50.894 45.2205C48.9793 44.3649 47.2886 43.2242 45.822 41.7984C44.3961 40.3318 43.2758 38.6207 42.461 36.6652C41.6462 34.669 41.2388 32.5302 41.2388 30.2488C41.2388 27.9674 41.6462 25.849 42.461 23.8935C43.2758 21.8973 44.3961 20.1863 45.822 18.7604C47.2886 17.2938 48.9793 16.1531 50.894 15.3383C52.8495 14.4828 54.9272 14.055 57.1271 14.055C59.327 14.055 61.3844 14.4828 63.2991 15.3383C65.2546 16.1531 66.9453 17.2938 68.3711 18.7604C69.8377 20.1863 70.9784 21.8973 71.7932 23.8935C72.608 25.849 73.0154 27.9674 73.0154 30.2488V32.3876H47.6553C47.8997 33.6913 48.3071 34.8523 48.8774 35.8708C49.4478 36.8893 50.1607 37.7652 51.0162 38.4985C51.8718 39.1911 52.8088 39.7207 53.8272 40.0873C54.8865 40.454 55.9864 40.6373 57.1271 40.6373C58.7159 40.6373 60.0807 40.4336 61.2214 40.0262C62.3621 39.5781 63.2787 39.0689 63.9713 38.4985C64.7861 37.8874 65.4583 37.1745 65.9879 36.3597H72.7098C71.9358 38.2744 70.8562 39.9651 69.4711 41.4317C68.86 42.0428 68.1674 42.6539 67.3934 43.265C66.6193 43.8761 65.7231 44.4261 64.7046 44.9149C63.6861 45.3631 62.5454 45.7297 61.2825 46.0149C60.0196 46.3001 58.6345 46.4426 57.1271 46.4426ZM66.2934 27.1934C66.1305 26.2971 65.8249 25.4009 65.3768 24.5046C64.9287 23.6083 64.3176 22.8343 63.5435 22.1825C62.7695 21.4899 61.8529 20.9399 60.7936 20.5325C59.7344 20.0844 58.5122 19.8603 57.1271 19.8603C56.0679 19.8603 55.029 20.0233 54.0106 20.3492C53.0328 20.6751 52.1162 21.164 51.2607 21.8158C50.4459 22.4269 49.7533 23.201 49.183 24.138C48.6126 25.0342 48.2052 26.0527 47.9608 27.1934H66.2934Z" fill="white"/>
<path d="M78.5199 17.8743C78.5199 16.1025 79.9563 14.6661 81.7281 14.6661C83.5 14.6661 84.9364 16.1025 84.9364 17.8743V18.6382H85.2419C85.9345 17.8234 86.7696 17.0697 87.7474 16.3771C88.5621 15.8068 89.5603 15.2772 90.7417 14.7883C91.9639 14.2994 93.3897 14.055 95.0193 14.055C97.097 14.055 99.0117 14.442 100.764 15.2161C102.556 15.9901 104.104 17.0901 105.408 18.5159C106.752 19.9011 107.791 21.5918 108.524 23.588C109.298 25.5842 109.685 27.8045 109.685 30.2488C109.685 32.6932 109.298 34.9135 108.524 36.9097C107.791 38.9059 106.752 40.6169 105.408 42.0428C104.104 43.4279 102.556 44.5075 100.764 45.2816C99.0117 46.0556 97.097 46.4426 95.0193 46.4426C93.3897 46.4426 91.9639 46.2186 90.7417 45.7704C89.5603 45.2816 88.5621 44.752 87.7474 44.1816C86.7696 43.4891 85.9345 42.715 85.2419 41.8595H84.9364V54.234C84.9364 56.0058 83.5 57.4422 81.7281 57.4422C79.9563 57.4422 78.5199 56.0058 78.5199 54.234V17.8743ZM93.7971 40.6373C96.5674 40.6373 98.7877 39.7614 100.458 38.0096C102.128 36.2171 102.963 33.6302 102.963 30.2488C102.963 26.8675 102.128 24.3009 100.458 22.5491C98.7877 20.7566 96.5674 19.8603 93.7971 19.8603C91.1898 19.8603 89.051 20.7566 87.3807 22.5491C85.7511 24.3009 84.9364 26.8675 84.9364 30.2488C84.9364 33.6302 85.7511 36.2171 87.3807 38.0096C89.051 39.7614 91.1898 40.6373 93.7971 40.6373Z" fill="white"/>
<path d="M128.911 46.4426C126.711 46.4426 124.654 46.0556 122.739 45.2816C120.824 44.4668 119.174 43.3465 117.789 41.9206C116.404 40.454 115.304 38.7429 114.489 36.7875C113.715 34.7912 113.328 32.6117 113.328 30.2488C113.328 27.886 113.715 25.7268 114.489 23.7713C115.304 21.7751 116.404 20.064 117.789 18.6382C119.174 17.1716 120.824 16.0512 122.739 15.2772C124.654 14.4624 126.711 14.055 128.911 14.055C130.459 14.055 131.864 14.218 133.127 14.5439C134.39 14.8698 135.511 15.2976 136.488 15.8272C137.507 16.3568 138.383 16.9679 139.116 17.6604C139.849 18.353 140.501 19.0456 141.071 19.7381C142.375 21.3677 143.312 23.2417 143.882 25.3601H137.16C136.835 24.3416 136.305 23.425 135.572 22.6102C134.961 21.9177 134.125 21.2862 133.066 20.7159C132.007 20.1455 130.622 19.8603 128.911 19.8603C127.689 19.8603 126.528 20.1048 125.428 20.5936C124.368 21.0825 123.431 21.7751 122.617 22.6713C121.843 23.5676 121.211 24.6676 120.722 25.9712C120.274 27.2341 120.05 28.66 120.05 30.2488C120.05 31.8377 120.274 33.2839 120.722 34.5875C121.211 35.8505 121.843 36.93 122.617 37.8263C123.431 38.7226 124.368 39.4151 125.428 39.904C126.528 40.3929 127.689 40.6373 128.911 40.6373C130.663 40.6373 132.088 40.3521 133.188 39.7818C134.288 39.2114 135.164 38.58 135.816 37.8874C136.549 37.1134 137.099 36.1967 137.466 35.1375H143.882C143.312 37.2967 142.375 39.1911 141.071 40.8206C140.501 41.5132 139.849 42.2058 139.116 42.8983C138.383 43.5502 137.507 44.1409 136.488 44.6705C135.511 45.2001 134.39 45.6279 133.127 45.9538C131.864 46.2797 130.459 46.4426 128.911 46.4426Z" fill="white"/>
<path d="M163.113 46.4426C160.913 46.4426 158.835 46.0352 156.879 45.2205C154.965 44.3649 153.274 43.2242 151.807 41.7984C150.382 40.3318 149.261 38.6207 148.446 36.6652C147.632 34.669 147.224 32.5302 147.224 30.2488C147.224 27.9674 147.632 25.849 148.446 23.8935C149.261 21.8973 150.382 20.1863 151.807 18.7604C153.274 17.2938 154.965 16.1531 156.879 15.3383C158.835 14.4828 160.913 14.055 163.113 14.055C165.312 14.055 167.37 14.4828 169.285 15.3383C171.24 16.1531 172.931 17.2938 174.357 18.7604C175.823 20.1863 176.964 21.8973 177.779 23.8935C178.593 25.849 179.001 27.9674 179.001 30.2488V32.3876H153.641C153.885 33.6913 154.293 34.8523 154.863 35.8708C155.433 36.8893 156.146 37.7652 157.002 38.4985C157.857 39.1911 158.794 39.7207 159.813 40.0873C160.872 40.454 161.972 40.6373 163.113 40.6373C164.701 40.6373 166.066 40.4336 167.207 40.0262C168.348 39.5781 169.264 39.0689 169.957 38.4985C170.772 37.8874 171.444 37.1745 171.973 36.3597H178.695C177.921 38.2744 176.842 39.9651 175.457 41.4317C174.845 42.0428 174.153 42.6539 173.379 43.265C172.605 43.8761 171.709 44.4261 170.69 44.9149C169.672 45.3631 168.531 45.7297 167.268 46.0149C166.005 46.3001 164.62 46.4426 163.113 46.4426ZM172.279 27.1934C172.116 26.2971 171.81 25.4009 171.362 24.5046C170.914 23.6083 170.303 22.8343 169.529 22.1825C168.755 21.4899 167.838 20.9399 166.779 20.5325C165.72 20.0844 164.498 19.8603 163.113 19.8603C162.053 19.8603 161.015 20.0233 159.996 20.3492C159.018 20.6751 158.102 21.164 157.246 21.8158C156.431 22.4269 155.739 23.201 155.168 24.138C154.598 25.0342 154.191 26.0527 153.946 27.1934H172.279Z" fill="white"/>
<path d="M184.505 17.8743C184.505 16.1025 185.942 14.6661 187.714 14.6661C189.485 14.6661 190.922 16.1025 190.922 17.8743V35.4431L190.861 36.0542H191.472L204.234 16.7182C205.079 15.437 206.512 14.6661 208.047 14.6661C210.57 14.6661 212.615 16.7116 212.615 19.2348V42.6233C212.615 44.3952 211.179 45.8316 209.407 45.8316C207.635 45.8316 206.199 44.3952 206.199 42.6233V25.0546L206.26 24.4435H205.649L192.887 43.7795C192.042 45.0606 190.609 45.8316 189.074 45.8316C186.551 45.8316 184.505 43.786 184.505 41.2628V17.8743ZM198.56 7.94414C195.342 7.94414 192.959 7.21083 191.411 5.74422C189.863 4.23687 189.089 2.32213 189.089 0H194.283C194.283 1.05922 194.609 1.89437 195.261 2.50546C195.912 3.07581 197.012 3.36098 198.56 3.36098C200.108 3.36098 201.208 3.07581 201.86 2.50546C202.512 1.89437 202.838 1.05922 202.838 0H208.032C208.032 2.32213 207.258 4.23687 205.71 5.74422C204.162 7.21083 201.779 7.94414 198.56 7.94414Z" fill="white"/>
<path d="M223.009 46.7482C221.787 46.7482 220.768 46.3408 219.953 45.526C219.138 44.7112 218.731 43.6927 218.731 42.4706C218.731 41.2484 219.138 40.2299 219.953 39.4151C220.768 38.6004 221.787 38.193 223.009 38.193C224.231 38.193 225.249 38.6004 226.064 39.4151C226.879 40.2299 227.286 41.2484 227.286 42.4706C227.286 43.6927 226.879 44.7112 226.064 45.526C225.249 46.3408 224.231 46.7482 223.009 46.7482Z" fill="white"/>
<path d="M246.213 46.4426C244.136 46.4426 242.2 46.0556 240.408 45.2816C238.656 44.5075 237.108 43.4279 235.764 42.0428C234.46 40.6169 233.421 38.9059 232.647 36.9097C231.914 34.9135 231.547 32.6932 231.547 30.2488C231.547 27.8045 231.914 25.5842 232.647 23.588C233.421 21.5918 234.46 19.9011 235.764 18.5159C237.108 17.0901 238.656 15.9901 240.408 15.2161C242.2 14.442 244.136 14.055 246.213 14.055C247.802 14.055 249.208 14.2994 250.43 14.7883C251.652 15.2772 252.67 15.8068 253.485 16.3771C254.463 17.0697 255.298 17.8234 255.991 18.6382H256.296V17.8743C256.296 16.1025 257.733 14.6661 259.504 14.6661C261.276 14.6661 262.713 16.1025 262.713 17.8743V42.6234C262.713 44.3952 261.276 45.8316 259.504 45.8316C257.733 45.8316 256.296 44.3952 256.296 42.6234V41.5539H255.991C255.298 42.4502 254.463 43.265 253.485 43.9983C252.67 44.6094 251.652 45.1797 250.43 45.7093C249.208 46.1982 247.802 46.4426 246.213 46.4426ZM247.435 40.6373C250.043 40.6373 252.161 39.7614 253.791 38.0096C255.461 36.2171 256.296 33.6302 256.296 30.2488C256.296 26.8675 255.461 24.3009 253.791 22.5491C252.161 20.7566 250.043 19.8603 247.435 19.8603C244.665 19.8603 242.445 20.7566 240.775 22.5491C239.104 24.3009 238.269 26.8675 238.269 30.2488C238.269 33.6302 239.104 36.2171 240.775 38.0096C242.445 39.7614 244.665 40.6373 247.435 40.6373Z" fill="#F7DE23"/>
<path d="M270.022 17.8743C270.022 16.1025 271.458 14.6661 273.23 14.6661C275.002 14.6661 276.438 16.1025 276.438 17.8743V26.8878H281.021L289.63 15.7802C290.174 15.0774 291.014 14.6661 291.903 14.6661C294.303 14.6661 295.647 17.4341 294.162 19.3204L286.521 29.0267L295.036 40.7352C296.579 42.8562 295.064 45.8316 292.441 45.8316C291.41 45.8316 290.441 45.3358 289.838 44.4992L281.327 32.6932H276.438V42.6233C276.438 44.3952 275.002 45.8316 273.23 45.8316C271.458 45.8316 270.022 44.3952 270.022 42.6233V17.8743Z" fill="#FFE313"/>
<path d="M309.454 20.4714H301.968C300.365 20.4714 299.065 19.1719 299.065 17.5688C299.065 15.9657 300.365 14.6661 301.968 14.6661H323.356C324.959 14.6661 326.259 15.9657 326.259 17.5688C326.259 19.1719 324.959 20.4714 323.356 20.4714H315.87V42.6233C315.87 44.3952 314.434 45.8316 312.662 45.8316C310.89 45.8316 309.454 44.3952 309.454 42.6233V20.4714Z" fill="#FFE313"/>
<path d="M330.235 17.8743C330.235 16.1025 331.672 14.6661 333.444 14.6661C335.215 14.6661 336.652 16.1025 336.652 17.8743V35.4431L336.591 36.0542H337.202L349.964 16.7182C350.809 15.437 352.242 14.6661 353.777 14.6661C356.3 14.6661 358.345 16.7116 358.345 19.2348V42.6233C358.345 44.3952 356.909 45.8316 355.137 45.8316C353.365 45.8316 351.929 44.3952 351.929 42.6233V25.0546L351.99 24.4435H351.379L338.617 43.7795C337.772 45.0606 336.339 45.8316 334.804 45.8316C332.281 45.8316 330.235 43.786 330.235 41.2628V17.8743Z" fill="#FFE313"/>
<path d="M365.683 22.8952C365.683 18.3504 369.368 14.6661 373.912 14.6661H381.266C384.321 14.6661 386.664 15.3994 388.293 16.866C389.923 18.3326 390.738 20.1455 390.738 22.3047C390.738 23.7713 390.473 24.9527 389.943 25.849C389.455 26.7045 388.905 27.3767 388.293 27.8656C387.56 28.4359 386.745 28.823 385.849 29.0267V29.2711C386.99 29.4748 388.008 29.8822 388.905 30.4933C389.679 31.0229 390.371 31.7969 390.982 32.8154C391.634 33.7931 391.96 35.1579 391.96 36.9097C391.96 38.1319 391.716 39.2929 391.227 40.3929C390.738 41.4928 390.045 42.4502 389.149 43.265C388.253 44.039 387.153 44.6705 385.849 45.1594C384.586 45.6075 383.16 45.8316 381.572 45.8316H373.912C369.368 45.8316 365.683 42.1472 365.683 37.6024V22.8952ZM381.266 40.0262C382.651 40.0262 383.71 39.6799 384.444 38.9874C385.177 38.2541 385.544 37.2763 385.544 36.0542C385.544 34.9949 385.177 34.119 384.444 33.4265C383.71 32.7339 382.651 32.3876 381.266 32.3876H372.1V40.0262H381.266ZM380.655 26.8878C383.099 26.8878 384.321 25.7675 384.321 23.5269C384.321 22.5899 384.016 21.8566 383.405 21.3269C382.794 20.7566 381.877 20.4714 380.655 20.4714H372.1V26.8878H380.655Z" fill="#FFE313"/>
<path d="M397.789 17.8743C397.789 16.1025 399.226 14.6661 400.997 14.6661C402.769 14.6661 404.206 16.1025 404.206 17.8743V27.1934H419.483V17.8743C419.483 16.1025 420.919 14.6661 422.691 14.6661C424.463 14.6661 425.899 16.1025 425.899 17.8743V42.6233C425.899 44.3952 424.463 45.8316 422.691 45.8316C420.919 45.8316 419.483 44.3952 419.483 42.6233V32.9987H404.206V42.6233C404.206 44.3952 402.769 45.8316 400.997 45.8316C399.226 45.8316 397.789 44.3952 397.789 42.6233V17.8743Z" fill="#FFE313"/>
<path d="M447.598 46.4426C445.316 46.4426 443.177 46.0352 441.181 45.2205C439.226 44.3649 437.515 43.2242 436.048 41.7984C434.622 40.3318 433.481 38.6207 432.626 36.6652C431.811 34.669 431.404 32.5302 431.404 30.2488C431.404 27.9674 431.811 25.849 432.626 23.8935C433.481 21.8973 434.622 20.1863 436.048 18.7604C437.515 17.2938 439.226 16.1531 441.181 15.3383C443.177 14.4828 445.316 14.055 447.598 14.055C449.879 14.055 451.997 14.4828 453.953 15.3383C455.949 16.1531 457.66 17.2938 459.086 18.7604C460.553 20.1863 461.693 21.8973 462.508 23.8935C463.364 25.849 463.791 27.9674 463.791 30.2488C463.791 32.5302 463.364 34.669 462.508 36.6652C461.693 38.6207 460.553 40.3318 459.086 41.7984C457.66 43.2242 455.949 44.3649 453.953 45.2205C451.997 46.0352 449.879 46.4426 447.598 46.4426ZM447.598 40.6373C448.983 40.6373 450.246 40.3929 451.386 39.904C452.568 39.4151 453.566 38.7226 454.381 37.8263C455.236 36.93 455.888 35.8505 456.336 34.5875C456.825 33.2839 457.069 31.8377 457.069 30.2488C457.069 28.66 456.825 27.2341 456.336 25.9712C455.888 24.6676 455.236 23.5676 454.381 22.6713C453.566 21.7751 452.568 21.0825 451.386 20.5936C450.246 20.1048 448.983 19.8603 447.598 19.8603C446.212 19.8603 444.929 20.1048 443.748 20.5936C442.607 21.0825 441.609 21.7751 440.753 22.6713C439.939 23.5676 439.287 24.6676 438.798 25.9712C438.35 27.2341 438.126 28.66 438.126 30.2488C438.126 31.8377 438.35 33.2839 438.798 34.5875C439.287 35.8505 439.939 36.93 440.753 37.8263C441.609 38.7226 442.607 39.4151 443.748 39.904C444.929 40.3929 446.212 40.6373 447.598 40.6373Z" fill="#FFE313"/>
<path d="M483.031 46.4426C480.831 46.4426 478.774 46.0556 476.859 45.2816C474.944 44.4668 473.294 43.3465 471.909 41.9206C470.524 40.454 469.424 38.7429 468.609 36.7875C467.835 34.7912 467.448 32.6117 467.448 30.2488C467.448 27.886 467.835 25.7268 468.609 23.7713C469.424 21.7751 470.524 20.064 471.909 18.6382C473.294 17.1716 474.944 16.0512 476.859 15.2772C478.774 14.4624 480.831 14.055 483.031 14.055C484.579 14.055 485.985 14.218 487.248 14.5439C488.51 14.8698 489.631 15.2976 490.609 15.8272C491.627 16.3568 492.503 16.9679 493.236 17.6604C493.97 18.353 494.621 19.0456 495.192 19.7381C496.495 21.3677 497.432 23.2417 498.003 25.3601H491.281C490.955 24.3416 490.425 23.425 489.692 22.6102C489.081 21.9177 488.246 21.2862 487.186 20.7159C486.127 20.1455 484.742 19.8603 483.031 19.8603C481.809 19.8603 480.648 20.1048 479.548 20.5936C478.489 21.0825 477.552 21.7751 476.737 22.6713C475.963 23.5676 475.331 24.6676 474.842 25.9712C474.394 27.2341 474.17 28.66 474.17 30.2488C474.17 31.8377 474.394 33.2839 474.842 34.5875C475.331 35.8505 475.963 36.93 476.737 37.8263C477.552 38.7226 478.489 39.4151 479.548 39.904C480.648 40.3929 481.809 40.6373 483.031 40.6373C484.783 40.6373 486.209 40.3521 487.309 39.7818C488.409 39.2114 489.285 38.58 489.936 37.8874C490.67 37.1134 491.22 36.1967 491.586 35.1375H498.003C497.432 37.2967 496.495 39.1911 495.192 40.8206C494.621 41.5132 493.97 42.2058 493.236 42.8983C492.503 43.5502 491.627 44.1409 490.609 44.6705C489.631 45.2001 488.51 45.6279 487.248 45.9538C485.985 46.2797 484.579 46.4426 483.031 46.4426Z" fill="#FFE313"/>
<path d="M510.205 20.4714H502.72C501.116 20.4714 499.817 19.1719 499.817 17.5688C499.817 15.9657 501.116 14.6661 502.72 14.6661H524.108C525.711 14.6661 527.01 15.9657 527.01 17.5688C527.01 19.1719 525.711 20.4714 524.108 20.4714H516.622V42.6233C516.622 44.3952 515.185 45.8316 513.414 45.8316C511.642 45.8316 510.205 44.3952 510.205 42.6234V20.4714Z" fill="#FFE313"/>
<path d="M530.987 17.8743C530.987 16.1025 532.423 14.6661 534.195 14.6661C535.967 14.6661 537.404 16.1025 537.404 17.8743V25.0546H545.042C546.875 25.0546 548.525 25.3194 549.992 25.849C551.458 26.3786 552.701 27.1119 553.72 28.0489C554.779 28.9859 555.573 30.0859 556.103 31.3488C556.673 32.6117 556.958 33.9765 556.958 35.4431C556.958 36.9097 556.673 38.2744 556.103 39.5374C555.573 40.8003 554.779 41.9002 553.72 42.8372C552.701 43.7742 551.458 44.5075 549.992 45.0371C548.525 45.5667 546.875 45.8316 545.042 45.8316H539.216C534.671 45.8316 530.987 42.1472 530.987 37.6024V17.8743ZM545.042 40.0262C546.753 40.0262 548.036 39.6188 548.892 38.804C549.788 37.9485 550.236 36.8282 550.236 35.4431C550.236 34.0579 549.788 32.958 548.892 32.1432C548.036 31.2877 546.753 30.8599 545.042 30.8599H537.404V40.0262H545.042Z" fill="#FFE313"/>
<path d="M18.5782 72.0764C17.8966 71.3564 17.5558 70.4635 17.5558 69.3978C17.5558 68.3322 17.8966 67.4441 18.5782 66.7336C19.2695 66.0136 20.1048 65.6535 21.084 65.6535C22.2265 65.6535 23.1338 66.076 23.8058 66.9208C24.1035 67.2857 24.3243 67.7033 24.4683 68.1737H23.6042C23.4698 67.8377 23.2922 67.5497 23.0714 67.3097C22.5721 66.7336 21.9097 66.4456 21.084 66.4456C20.3544 66.4456 19.7255 66.7288 19.1975 67.2953C18.6791 67.8521 18.4198 68.553 18.4198 69.3978C18.4198 70.2427 18.6791 70.9484 19.1975 71.5148C19.7255 72.0716 20.3544 72.3501 21.084 72.3501C21.9193 72.3501 22.601 72.038 23.129 71.414C23.3786 71.126 23.561 70.8139 23.6762 70.4779H24.5403C24.3963 70.9676 24.1707 71.414 23.8634 71.8172C23.1338 72.7005 22.2073 73.1421 21.084 73.1421C20.1048 73.1421 19.2695 72.7869 18.5782 72.0764ZM26.2729 72.9981V65.7976H27.137V71.63L27.1226 71.774H27.137L31.3133 65.7976H32.3214V72.9981H31.4573V67.1657L31.4717 67.0216H31.4573L27.281 72.9981H26.2729ZM35.1451 72.0764C34.4635 71.3564 34.1227 70.4635 34.1227 69.3978C34.1227 68.3322 34.4635 67.4441 35.1451 66.7336C35.8364 66.0136 36.6717 65.6535 37.6509 65.6535C38.7934 65.6535 39.7007 66.076 40.3727 66.9208C40.6704 67.2857 40.8912 67.7033 41.0352 68.1737H40.1711C40.0367 67.8377 39.8591 67.5497 39.6383 67.3097C39.139 66.7336 38.4766 66.4456 37.6509 66.4456C36.9213 66.4456 36.2924 66.7288 35.7644 67.2953C35.2459 67.8521 34.9867 68.553 34.9867 69.3978C34.9867 70.2427 35.2459 70.9484 35.7644 71.5148C36.2924 72.0716 36.9213 72.3501 37.6509 72.3501C38.4862 72.3501 39.1678 72.038 39.6959 71.414C39.9455 71.126 40.1279 70.8139 40.2431 70.4779H41.1072C40.9632 70.9676 40.7376 71.414 40.4303 71.8172C39.7007 72.7005 38.7742 73.1421 37.6509 73.1421C36.6717 73.1421 35.8364 72.7869 35.1451 72.0764ZM41.7597 66.5896V65.7976H47.8082V66.5896H45.216V72.9981H44.3519V66.5896H41.7597ZM49.5606 72.0764C48.8694 71.366 48.5238 70.4731 48.5238 69.3978C48.5238 68.3225 48.8694 67.4297 49.5606 66.7192C50.2519 66.0088 51.1064 65.6535 52.124 65.6535C53.1321 65.6535 53.9818 66.0088 54.673 66.7192C55.3739 67.4201 55.7243 68.2889 55.7243 69.3258V69.6859H49.3878C49.4262 70.4443 49.7047 71.078 50.2231 71.5868C50.7415 72.0956 51.3752 72.3501 52.124 72.3501C52.9497 72.3501 53.6266 72.086 54.1546 71.558C54.4042 71.3276 54.5914 71.0636 54.7162 70.7659H55.5803C55.4075 71.2172 55.1627 71.6156 54.8458 71.9612C54.1354 72.7485 53.2281 73.1421 52.124 73.1421C51.1064 73.1421 50.2519 72.7869 49.5606 72.0764ZM49.3878 68.8938H54.7882C54.7114 68.1929 54.4234 67.6121 53.9242 67.1513C53.4345 66.6808 52.8345 66.4456 52.124 66.4456C51.4136 66.4456 50.8087 66.676 50.3095 67.1369C49.8103 67.5977 49.503 68.1833 49.3878 68.8938ZM57.5222 72.9981V65.7976H58.8183L61.1945 70.4059H61.6265L64.0027 65.7976H65.2988V72.9981H64.4347V66.9496L64.4491 66.8056H64.4347L62.1306 71.27H60.6904L58.3863 66.8056H58.3719L58.3863 66.9496V72.9981H57.5222ZM68.1098 72.0764C67.4378 71.3564 67.1017 70.4635 67.1017 69.3978C67.1017 68.3322 67.4378 67.4441 68.1098 66.7336C68.7819 66.0136 69.5979 65.6535 70.558 65.6535C71.2397 65.6535 71.8157 65.8216 72.2861 66.1576C72.7566 66.484 73.0878 66.844 73.2798 67.2377H73.2942V65.7976H74.1583V72.9981H73.2942V71.558H73.2798C73.0878 71.9516 72.7566 72.3165 72.2861 72.6525C71.8157 72.9789 71.2397 73.1421 70.558 73.1421C69.5979 73.1421 68.7819 72.7869 68.1098 72.0764ZM68.7435 67.2953C68.225 67.8521 67.9658 68.553 67.9658 69.3978C67.9658 70.2427 68.225 70.9484 68.7435 71.5148C69.2715 72.0716 69.9004 72.3501 70.63 72.3501C71.3405 72.3501 71.9597 72.0716 72.4878 71.5148C73.0254 70.9484 73.2942 70.2427 73.2942 69.3978C73.2942 68.553 73.0254 67.8521 72.4878 67.2953C71.9597 66.7288 71.3405 66.4456 70.63 66.4456C69.9004 66.4456 69.2715 66.7288 68.7435 67.2953ZM79.71 65.7976H80.6461L82.3022 72.206H83.6703L85.5425 65.7976H86.4785L83.5263 75.7343H82.5902L83.4543 72.9981H81.6542L79.71 65.7976ZM87.5569 68.3177V65.7976H88.421V68.3177C88.421 69.4698 89.021 70.0459 90.2211 70.0459C90.7876 70.0459 91.33 69.9403 91.8485 69.7291C92.1077 69.6138 92.3093 69.5034 92.4533 69.3978V65.7976H93.3174V72.9981H92.4533V70.1899C92.3093 70.2955 92.1077 70.4059 91.8485 70.5211C91.33 70.7323 90.7876 70.8379 90.2211 70.8379C89.3955 70.8379 88.7426 70.6123 88.2626 70.1611C87.7922 69.7003 87.5569 69.0858 87.5569 68.3177ZM96.1533 72.0764C95.462 71.366 95.1164 70.4731 95.1164 69.3978C95.1164 68.3225 95.462 67.4297 96.1533 66.7192C96.8445 66.0088 97.699 65.6535 98.7167 65.6535C99.7247 65.6535 100.574 66.0088 101.266 66.7192C101.967 67.4201 102.317 68.2889 102.317 69.3258V69.6859H95.9805C96.0189 70.4443 96.2973 71.078 96.8157 71.5868C97.3342 72.0956 97.9678 72.3501 98.7167 72.3501C99.5423 72.3501 100.219 72.086 100.747 71.558C100.997 71.3276 101.184 71.0636 101.309 70.7659H102.173C102 71.2172 101.755 71.6156 101.438 71.9612C100.728 72.7485 99.8208 73.1421 98.7167 73.1421C97.699 73.1421 96.8445 72.7869 96.1533 72.0764ZM95.9805 68.8938H101.381C101.304 68.1929 101.016 67.6121 100.517 67.1513C100.027 66.6808 99.4271 66.4456 98.7167 66.4456C98.0062 66.4456 97.4014 66.676 96.9021 67.1369C96.4029 67.5977 96.0957 68.1833 95.9805 68.8938ZM99.4079 64.4583C99.2831 64.3334 99.2207 64.1798 99.2207 63.9974C99.2207 63.815 99.2831 63.6614 99.4079 63.5366C99.5327 63.4118 99.6863 63.3494 99.8688 63.3494C100.051 63.3494 100.205 63.4118 100.33 63.5366C100.454 63.6614 100.517 63.815 100.517 63.9974C100.517 64.1798 100.454 64.3334 100.33 64.4583C100.205 64.5831 100.051 64.6455 99.8688 64.6455C99.6863 64.6455 99.5327 64.5831 99.4079 64.4583ZM96.9597 64.4583C96.8349 64.3334 96.7725 64.1798 96.7725 63.9974C96.7725 63.815 96.8349 63.6614 96.9597 63.5366C97.0845 63.4118 97.2382 63.3494 97.4206 63.3494C97.603 63.3494 97.7566 63.4118 97.8814 63.5366C98.0062 63.6614 98.0686 63.815 98.0686 63.9974C98.0686 64.1798 98.0062 64.3334 97.8814 64.4583C97.7566 64.5831 97.603 64.6455 97.4206 64.6455C97.2382 64.6455 97.0845 64.5831 96.9597 64.4583ZM103.035 66.5896V65.7976H109.083V66.5896H106.491V72.9981H105.627V66.5896H103.035ZM110.807 72.0764C110.135 71.3564 109.799 70.4635 109.799 69.3978C109.799 68.3322 110.135 67.4441 110.807 66.7336C111.479 66.0136 112.295 65.6535 113.255 65.6535C113.937 65.6535 114.513 65.8216 114.983 66.1576C115.454 66.484 115.785 66.844 115.977 67.2377H115.991V65.7976H116.855V72.9981H115.991V71.558H115.977C115.785 71.9516 115.454 72.3165 114.983 72.6525C114.513 72.9789 113.937 73.1421 113.255 73.1421C112.295 73.1421 111.479 72.7869 110.807 72.0764ZM111.44 67.2953C110.922 67.8521 110.663 68.553 110.663 69.3978C110.663 70.2427 110.922 70.9484 111.44 71.5148C111.969 72.0716 112.597 72.3501 113.327 72.3501C114.037 72.3501 114.657 72.0716 115.185 71.5148C115.722 70.9484 115.991 70.2427 115.991 69.3978C115.991 68.553 115.722 67.8521 115.185 67.2953C114.657 66.7288 114.037 66.4456 113.327 66.4456C112.597 66.4456 111.969 66.7288 111.44 67.2953ZM123.703 72.0764C123.031 71.3564 122.695 70.4635 122.695 69.3978C122.695 68.3322 123.031 67.4441 123.703 66.7336C124.375 66.0136 125.191 65.6535 126.151 65.6535C126.833 65.6535 127.409 65.8216 127.879 66.1576C128.35 66.484 128.681 66.844 128.873 67.2377H128.888V65.7976H129.752V72.9981H128.888V71.558H128.873C128.681 71.9516 128.35 72.3165 127.879 72.6525C127.409 72.9789 126.833 73.1421 126.151 73.1421C125.191 73.1421 124.375 72.7869 123.703 72.0764ZM124.337 67.2953C123.818 67.8521 123.559 68.553 123.559 69.3978C123.559 70.2427 123.818 70.9484 124.337 71.5148C124.865 72.0716 125.494 72.3501 126.223 72.3501C126.934 72.3501 127.553 72.0716 128.081 71.5148C128.619 70.9484 128.888 70.2427 128.888 69.3978C128.888 68.553 128.619 67.8521 128.081 67.2953C127.553 66.7288 126.934 66.4456 126.223 66.4456C125.494 66.4456 124.865 66.7288 124.337 67.2953ZM132.059 72.9981V65.7976H132.923V68.8218H134.651L137.028 65.7976H138.036L135.371 69.2538L138.252 72.9981H137.244L134.651 69.6138H132.923V72.9981H132.059ZM138.391 66.5896V65.7976H144.439V66.5896H141.847V72.9981H140.983V66.5896H138.391ZM145.659 72.9981V65.7976H146.523V71.63L146.508 71.774H146.523L150.699 65.7976H151.707V72.9981H150.843V67.1657L150.857 67.0216H150.843L146.667 72.9981H145.659ZM154.012 72.9981V65.7976H157.397C158.078 65.7976 158.606 65.9704 158.981 66.316C159.365 66.6616 159.557 67.1129 159.557 67.6697C159.557 68.3994 159.197 68.8986 158.477 69.1674V69.1818C158.506 69.1818 158.563 69.1962 158.65 69.225C158.736 69.2538 158.846 69.3114 158.981 69.3978C159.125 69.4842 159.259 69.5898 159.384 69.7147C159.509 69.8395 159.614 70.0123 159.701 70.2331C159.797 70.4539 159.845 70.7035 159.845 70.982C159.845 71.5772 159.629 72.062 159.197 72.4365C158.774 72.8109 158.179 72.9981 157.411 72.9981H154.012ZM154.876 68.8218H157.397C157.819 68.8218 158.141 68.7258 158.362 68.5338C158.582 68.3418 158.693 68.0777 158.693 67.7417C158.693 66.9736 158.261 66.5896 157.397 66.5896H154.876V68.8218ZM154.876 72.206H157.397C158.453 72.206 158.981 71.774 158.981 70.9099C158.981 70.0459 158.453 69.6138 157.397 69.6138H154.876V72.206ZM161.649 72.9981V65.7976H162.513V68.9658H166.833V65.7976H167.697V72.9981H166.833V69.7579H162.513V72.9981H161.649ZM170.55 72.0764C169.849 71.366 169.499 70.4731 169.499 69.3978C169.499 68.3225 169.849 67.4297 170.55 66.7192C171.251 66.0088 172.124 65.6535 173.171 65.6535C174.217 65.6535 175.091 66.0088 175.792 66.7192C176.493 67.4297 176.843 68.3225 176.843 69.3978C176.843 70.4731 176.493 71.366 175.792 72.0764C175.091 72.7869 174.217 73.1421 173.171 73.1421C172.124 73.1421 171.251 72.7869 170.55 72.0764ZM171.169 67.2809C170.632 67.8377 170.363 68.5434 170.363 69.3978C170.363 70.2523 170.632 70.958 171.169 71.5148C171.707 72.0716 172.374 72.3501 173.171 72.3501C173.968 72.3501 174.635 72.0716 175.173 71.5148C175.71 70.958 175.979 70.2523 175.979 69.3978C175.979 68.5434 175.71 67.8377 175.173 67.2809C174.635 66.724 173.968 66.4456 173.171 66.4456C172.374 66.4456 171.707 66.724 171.169 67.2809ZM179.156 72.0764C178.475 71.3564 178.134 70.4635 178.134 69.3978C178.134 68.3322 178.475 67.4441 179.156 66.7336C179.847 66.0136 180.683 65.6535 181.662 65.6535C182.804 65.6535 183.712 66.076 184.384 66.9208C184.681 67.2857 184.902 67.7033 185.046 68.1737H184.182C184.048 67.8377 183.87 67.5497 183.649 67.3097C183.15 66.7336 182.488 66.4456 181.662 66.4456C180.932 66.4456 180.303 66.7288 179.775 67.2953C179.257 67.8521 178.998 68.553 178.998 69.3978C178.998 70.2427 179.257 70.9484 179.775 71.5148C180.303 72.0716 180.932 72.3501 181.662 72.3501C182.497 72.3501 183.179 72.038 183.707 71.414C183.957 71.126 184.139 70.8139 184.254 70.4779H185.118C184.974 70.9676 184.749 71.414 184.441 71.8172C183.712 72.7005 182.785 73.1421 181.662 73.1421C180.683 73.1421 179.847 72.7869 179.156 72.0764ZM185.771 66.5896V65.7976H191.819V66.5896H189.227V72.9981H188.363V66.5896H185.771ZM193.039 72.9981V65.7976H193.903V71.63L193.889 71.774H193.903L198.079 65.7976H199.087V72.9981H198.223V67.1657L198.238 67.0216H198.223L194.047 72.9981H193.039ZM205.429 72.9981V65.7976H206.293V72.206H209.533V65.7976H210.397V72.206H213.637V65.7976H214.502V72.9981H205.429ZM216.806 72.9981V65.7976H217.67V68.8218H219.398L221.775 65.7976H222.783L220.119 69.2538L222.999 72.9981H221.991L219.398 69.6138H217.67V72.9981H216.806ZM224.484 72.0764C223.783 71.366 223.432 70.4731 223.432 69.3978C223.432 68.3225 223.783 67.4297 224.484 66.7192C225.185 66.0088 226.058 65.6535 227.105 65.6535C228.151 65.6535 229.025 66.0088 229.726 66.7192C230.427 67.4297 230.777 68.3225 230.777 69.3978C230.777 70.4731 230.427 71.366 229.726 72.0764C229.025 72.7869 228.151 73.1421 227.105 73.1421C226.058 73.1421 225.185 72.7869 224.484 72.0764ZM225.103 67.2809C224.565 67.8377 224.297 68.5434 224.297 69.3978C224.297 70.2523 224.565 70.958 225.103 71.5148C225.641 72.0716 226.308 72.3501 227.105 72.3501C227.902 72.3501 228.569 72.0716 229.107 71.5148C229.644 70.958 229.913 70.2523 229.913 69.3978C229.913 68.5434 229.644 67.8377 229.107 67.2809C228.569 66.724 227.902 66.4456 227.105 66.4456C226.308 66.4456 225.641 66.724 225.103 67.2809ZM231.707 72.9981L233.724 65.7976H236.532L238.548 72.9981H237.684L235.884 66.5896H234.372L232.572 72.9981H231.707ZM239.983 72.9981V65.7976H240.847V68.3898H243.079C243.857 68.3898 244.481 68.6106 244.951 69.0522C245.431 69.4842 245.671 70.0315 245.671 70.6939C245.671 71.3564 245.431 71.9084 244.951 72.3501C244.481 72.7821 243.857 72.9981 243.079 72.9981H239.983ZM240.847 72.206H243.079C243.617 72.206 244.039 72.0668 244.347 71.7884C244.654 71.5004 244.807 71.1356 244.807 70.6939C244.807 70.2523 244.654 69.8923 244.347 69.6138C244.039 69.3258 243.617 69.1818 243.079 69.1818H240.847V72.206ZM247.254 72.9981V65.7976H248.118V68.9658H252.438V65.7976H253.302V72.9981H252.438V69.7579H248.118V72.9981H247.254ZM255.608 72.9981V65.7976H256.472V71.63L256.457 71.774H256.472L260.648 65.7976H261.656V72.9981H260.792V67.1657L260.806 67.0216H260.792L256.616 72.9981H255.608ZM263.961 72.9981V65.7976H264.826V68.8218H266.554L268.93 65.7976H269.938L267.274 69.2538L270.154 72.9981H269.146L266.554 69.6138H264.826V72.9981H263.961ZM271.639 72.0764C270.938 71.366 270.588 70.4731 270.588 69.3978C270.588 68.3225 270.938 67.4297 271.639 66.7192C272.34 66.0088 273.213 65.6535 274.26 65.6535C275.306 65.6535 276.18 66.0088 276.881 66.7192C277.582 67.4297 277.932 68.3225 277.932 69.3978C277.932 70.4731 277.582 71.366 276.881 72.0764C276.18 72.7869 275.306 73.1421 274.26 73.1421C273.213 73.1421 272.34 72.7869 271.639 72.0764ZM272.258 67.2809C271.721 67.8377 271.452 68.5434 271.452 69.3978C271.452 70.2523 271.721 70.958 272.258 71.5148C272.796 72.0716 273.463 72.3501 274.26 72.3501C275.057 72.3501 275.724 72.0716 276.262 71.5148C276.799 70.958 277.068 70.2523 277.068 69.3978C277.068 68.5434 276.799 67.8377 276.262 67.2809C275.724 66.724 275.057 66.4456 274.26 66.4456C273.463 66.4456 272.796 66.724 272.258 67.2809ZM279.727 72.9981V65.7976H283.111C283.793 65.7976 284.321 65.9704 284.695 66.316C285.079 66.6616 285.271 67.1129 285.271 67.6697C285.271 68.3994 284.911 68.8986 284.191 69.1674V69.1818C284.22 69.1818 284.277 69.1962 284.364 69.225C284.45 69.2538 284.561 69.3114 284.695 69.3978C284.839 69.4842 284.974 69.5898 285.098 69.7147C285.223 69.8395 285.329 70.0123 285.415 70.2331C285.511 70.4539 285.559 70.7035 285.559 70.982C285.559 71.5772 285.343 72.062 284.911 72.4365C284.489 72.8109 283.893 72.9981 283.125 72.9981H279.727ZM280.591 68.8218H283.111C283.533 68.8218 283.855 68.7258 284.076 68.5338C284.297 68.3418 284.407 68.0777 284.407 67.7417C284.407 66.9736 283.975 66.5896 283.111 66.5896H280.591V68.8218ZM280.591 72.206H283.111C284.167 72.206 284.695 71.774 284.695 70.9099C284.695 70.0459 284.167 69.6138 283.111 69.6138H280.591V72.206ZM291.399 72.9981V65.7976H294.784C295.465 65.7976 295.993 65.9704 296.368 66.316C296.752 66.6616 296.944 67.1129 296.944 67.6697C296.944 68.3994 296.584 68.8986 295.864 69.1674V69.1818C295.893 69.1818 295.95 69.1962 296.037 69.225C296.123 69.2538 296.233 69.3114 296.368 69.3978C296.512 69.4842 296.646 69.5898 296.771 69.7147C296.896 69.8395 297.002 70.0123 297.088 70.2331C297.184 70.4539 297.232 70.7035 297.232 70.982C297.232 71.5772 297.016 72.062 296.584 72.4365C296.161 72.8109 295.566 72.9981 294.798 72.9981H291.399ZM292.264 68.8218H294.784C295.206 68.8218 295.528 68.7258 295.749 68.5338C295.969 68.3418 296.08 68.0777 296.08 67.7417C296.08 66.9736 295.648 66.5896 294.784 66.5896H292.264V68.8218ZM292.264 72.206H294.784C295.84 72.206 296.368 71.774 296.368 70.9099C296.368 70.0459 295.84 69.6138 294.784 69.6138H292.264V72.206ZM303.072 72.9981V65.7976H309.049V72.9981H308.185V66.5896H303.936V72.9981H303.072ZM311.356 75.7343V65.7976H312.22V67.2377H312.234C312.388 66.8536 312.709 66.4936 313.199 66.1576C313.689 65.8216 314.274 65.6535 314.956 65.6535C315.916 65.6535 316.732 66.0136 317.404 66.7336C318.076 67.4441 318.412 68.3322 318.412 69.3978C318.412 70.4635 318.076 71.3564 317.404 72.0764C316.732 72.7869 315.916 73.1421 314.956 73.1421C314.274 73.1421 313.689 72.9741 313.199 72.6381C312.709 72.3021 312.388 71.942 312.234 71.558H312.22V75.7343H311.356ZM313.012 67.2953C312.484 67.8521 312.22 68.553 312.22 69.3978C312.22 70.2427 312.484 70.9484 313.012 71.5148C313.549 72.0716 314.174 72.3501 314.884 72.3501C315.614 72.3501 316.238 72.0716 316.756 71.5148C317.284 70.9484 317.548 70.2427 317.548 69.3978C317.548 68.553 317.284 67.8521 316.756 67.2953C316.238 66.7288 315.614 66.4456 314.884 66.4456C314.174 66.4456 313.549 66.7288 313.012 67.2953ZM320.763 72.0764C320.062 71.366 319.712 70.4731 319.712 69.3978C319.712 68.3225 320.062 67.4297 320.763 66.7192C321.464 66.0088 322.338 65.6535 323.384 65.6535C324.43 65.6535 325.304 66.0088 326.005 66.7192C326.706 67.4297 327.056 68.3225 327.056 69.3978C327.056 70.4731 326.706 71.366 326.005 72.0764C325.304 72.7869 324.43 73.1421 323.384 73.1421C322.338 73.1421 321.464 72.7869 320.763 72.0764ZM321.382 67.2809C320.845 67.8377 320.576 68.5434 320.576 69.3978C320.576 70.2523 320.845 70.958 321.382 71.5148C321.92 72.0716 322.587 72.3501 323.384 72.3501C324.181 72.3501 324.848 72.0716 325.386 71.5148C325.923 70.958 326.192 70.2523 326.192 69.3978C326.192 68.5434 325.923 67.8377 325.386 67.2809C324.848 66.724 324.181 66.4456 323.384 66.4456C322.587 66.4456 321.92 66.724 321.382 67.2809ZM328.851 72.9981V65.7976H333.675V66.5896H329.715V72.9981H328.851ZM334.968 75.7343V65.7976H335.833V67.2377H335.847C336.001 66.8536 336.322 66.4936 336.812 66.1576C337.301 65.8216 337.887 65.6535 338.569 65.6535C339.529 65.6535 340.345 66.0136 341.017 66.7336C341.689 67.4441 342.025 68.3322 342.025 69.3978C342.025 70.4635 341.689 71.3564 341.017 72.0764C340.345 72.7869 339.529 73.1421 338.569 73.1421C337.887 73.1421 337.301 72.9741 336.812 72.6381C336.322 72.3021 336.001 71.942 335.847 71.558H335.833V75.7343H334.968ZM336.625 67.2953C336.097 67.8521 335.833 68.553 335.833 69.3978C335.833 70.2427 336.097 70.9484 336.625 71.5148C337.162 72.0716 337.786 72.3501 338.497 72.3501C339.226 72.3501 339.85 72.0716 340.369 71.5148C340.897 70.9484 341.161 70.2427 341.161 69.3978C341.161 68.553 340.897 67.8521 340.369 67.2953C339.85 66.7288 339.226 66.4456 338.497 66.4456C337.786 66.4456 337.162 66.7288 336.625 67.2953ZM344.333 72.0764C343.66 71.3564 343.324 70.4635 343.324 69.3978C343.324 68.3322 343.66 67.4441 344.333 66.7336C345.005 66.0136 345.821 65.6535 346.781 65.6535C347.462 65.6535 348.038 65.8216 348.509 66.1576C348.979 66.484 349.311 66.844 349.503 67.2377H349.517V65.7976H350.381V72.9981H349.517V71.558H349.503C349.311 71.9516 348.979 72.3165 348.509 72.6525C348.038 72.9789 347.462 73.1421 346.781 73.1421C345.821 73.1421 345.005 72.7869 344.333 72.0764ZM344.966 67.2953C344.448 67.8521 344.189 68.553 344.189 69.3978C344.189 70.2427 344.448 70.9484 344.966 71.5148C345.494 72.0716 346.123 72.3501 346.853 72.3501C347.563 72.3501 348.182 72.0716 348.71 71.5148C349.248 70.9484 349.517 70.2427 349.517 69.3978C349.517 68.553 349.248 67.8521 348.71 67.2953C348.182 66.7288 347.563 66.4456 346.853 66.4456C346.123 66.4456 345.494 66.7288 344.966 67.2953ZM352.689 72.9981V65.7976H353.985L356.361 70.4059H356.793L359.169 65.7976H360.465V72.9981H359.601V66.9496L359.615 66.8056H359.601L357.297 71.27H355.857L353.553 66.8056H353.538L353.553 66.9496V72.9981H352.689ZM362.772 72.9981V65.7976H364.068L366.444 70.4059H366.876L369.253 65.7976H370.549V72.9981H369.685V66.9496L369.699 66.8056H369.685L367.38 71.27H365.94L363.636 66.8056H363.622L363.636 66.9496V72.9981H362.772ZM373.36 72.0764C372.688 71.3564 372.352 70.4635 372.352 69.3978C372.352 68.3322 372.688 67.4441 373.36 66.7336C374.032 66.0136 374.848 65.6535 375.808 65.6535C376.49 65.6535 377.066 65.8216 377.536 66.1576C378.007 66.484 378.338 66.844 378.53 67.2377H378.544V65.7976H379.408V72.9981H378.544V71.558H378.53C378.338 71.9516 378.007 72.3165 377.536 72.6525C377.066 72.9789 376.49 73.1421 375.808 73.1421C374.848 73.1421 374.032 72.7869 373.36 72.0764ZM373.993 67.2953C373.475 67.8521 373.216 68.553 373.216 69.3978C373.216 70.2427 373.475 70.9484 373.993 71.5148C374.521 72.0716 375.15 72.3501 375.88 72.3501C376.59 72.3501 377.21 72.0716 377.738 71.5148C378.275 70.9484 378.544 70.2427 378.544 69.3978C378.544 68.553 378.275 67.8521 377.738 67.2953C377.21 66.7288 376.59 66.4456 375.88 66.4456C375.15 66.4456 374.521 66.7288 373.993 67.2953ZM380.708 72.9981L382.868 69.3258L380.852 65.7976H381.86L383.588 68.8938H384.524L386.252 65.7976H387.26L385.244 69.3258L387.404 72.9981H386.396L384.524 69.6859H383.588L381.716 72.9981H380.708ZM19.1111 90.774C18.1222 89.7659 17.6278 88.4938 17.6278 86.9577C17.6278 85.4216 18.1222 84.1495 19.1111 83.1414C20.1 82.1334 21.3337 81.6293 22.8122 81.6293C24.2907 81.6293 25.5244 82.1334 26.5133 83.1414C27.5021 84.1495 27.9966 85.4216 27.9966 86.9577C27.9966 88.4938 27.5021 89.7659 26.5133 90.774C25.5244 91.7821 24.2907 92.2861 22.8122 92.2861C21.3337 92.2861 20.1 91.7821 19.1111 90.774ZM19.7591 83.7319C18.9623 84.5575 18.5638 85.6328 18.5638 86.9577C18.5638 88.2826 18.9623 89.3579 19.7591 90.1836C20.556 91.0092 21.5737 91.4221 22.8122 91.4221C24.0507 91.4221 25.0683 91.0092 25.8652 90.1836C26.6621 89.3579 27.0605 88.2826 27.0605 86.9577C27.0605 85.6328 26.6621 84.5575 25.8652 83.7319C25.0683 82.9062 24.0507 82.4934 22.8122 82.4934C21.5737 82.4934 20.556 82.9062 19.7591 83.7319ZM29.4412 87.8938C29.4412 85.8008 29.8204 84.2839 30.5789 83.343C31.3373 82.3926 32.4462 81.9173 33.9055 81.9173H35.7057V82.7094H33.9775C32.835 82.7094 31.9614 83.0358 31.3565 83.6887C30.7517 84.3319 30.3964 85.3496 30.2908 86.7417H30.3052C30.4685 86.4825 30.6701 86.2569 30.9101 86.0649C31.4669 85.604 32.1534 85.3736 32.9694 85.3736C33.8719 85.3736 34.6496 85.7048 35.3024 86.3673C35.9553 87.0297 36.2817 87.8266 36.2817 88.7579C36.2817 89.6987 35.9457 90.5004 35.2736 91.1628C34.6112 91.8157 33.7951 92.1421 32.8254 92.1421C31.779 92.1421 30.9533 91.7869 30.3484 91.0764C29.7436 90.3564 29.4412 89.2955 29.4412 87.8938ZM30.3052 88.585C30.3052 89.4107 30.5405 90.078 31.0109 90.5868C31.4909 91.0956 32.0958 91.3501 32.8254 91.3501C33.5455 91.3501 34.1551 91.0956 34.6544 90.5868C35.1632 90.078 35.4176 89.4587 35.4176 88.7291C35.4176 88.0186 35.1632 87.4138 34.6544 86.9145C34.1551 86.4153 33.5455 86.1657 32.8254 86.1657C32.115 86.1657 31.5149 86.4009 31.0253 86.8713C30.5453 87.3418 30.3052 87.913 30.3052 88.585ZM37.9316 94.7343V84.7976H38.7957V86.2377H38.8101C38.9637 85.8536 39.2853 85.4936 39.775 85.1576C40.2646 84.8216 40.8503 84.6535 41.5319 84.6535C42.492 84.6535 43.308 85.0136 43.9801 85.7336C44.6522 86.4441 44.9882 87.3322 44.9882 88.3978C44.9882 89.4635 44.6522 90.3564 43.9801 91.0764C43.308 91.7869 42.492 92.1421 41.5319 92.1421C40.8503 92.1421 40.2646 91.9741 39.775 91.6381C39.2853 91.3021 38.9637 90.942 38.8101 90.558H38.7957V94.7343H37.9316ZM39.5878 86.2953C39.0597 86.8521 38.7957 87.553 38.7957 88.3978C38.7957 89.2427 39.0597 89.9484 39.5878 90.5148C40.1254 91.0716 40.7495 91.3501 41.4599 91.3501C42.1896 91.3501 42.8136 91.0716 43.3321 90.5148C43.8601 89.9484 44.1241 89.2427 44.1241 88.3978C44.1241 87.553 43.8601 86.8521 43.3321 86.2953C42.8136 85.7288 42.1896 85.4456 41.4599 85.4456C40.7495 85.4456 40.1254 85.7288 39.5878 86.2953ZM47.2957 91.0764C46.6237 90.3564 46.2877 89.4635 46.2877 88.3978C46.2877 87.3322 46.6237 86.4441 47.2957 85.7336C47.9678 85.0136 48.7838 84.6535 49.7439 84.6535C50.4256 84.6535 51.0016 84.8216 51.472 85.1576C51.9425 85.484 52.2737 85.844 52.4657 86.2377H52.4801V84.7976H53.3442V91.9981H52.4801V90.558H52.4657C52.2737 90.9516 51.9425 91.3165 51.472 91.6525C51.0016 91.9789 50.4256 92.1421 49.7439 92.1421C48.7838 92.1421 47.9678 91.7869 47.2957 91.0764ZM47.9294 86.2953C47.4109 86.8521 47.1517 87.553 47.1517 88.3978C47.1517 89.2427 47.4109 89.9484 47.9294 90.5148C48.4574 91.0716 49.0863 91.3501 49.8159 91.3501C50.5264 91.3501 51.1456 91.0716 51.6737 90.5148C52.2113 89.9484 52.4801 89.2427 52.4801 88.3978C52.4801 87.553 52.2113 86.8521 51.6737 86.2953C51.1456 85.7288 50.5264 85.4456 49.8159 85.4456C49.0863 85.4456 48.4574 85.7288 47.9294 86.2953ZM54.8597 89.9099H55.7238C55.791 90.1692 55.9206 90.4092 56.1126 90.63C56.5542 91.11 57.1687 91.3501 57.9559 91.3501C58.6088 91.3501 59.108 91.2204 59.4536 90.9612C59.7993 90.702 59.9721 90.3756 59.9721 89.982C59.9721 89.5883 59.8041 89.2763 59.468 89.0459C59.1416 88.8059 58.6376 88.6859 57.9559 88.6859H57.0919V87.8938H57.9559C59.156 87.8938 59.7561 87.4858 59.7561 86.6697C59.7561 86.3241 59.6024 86.0361 59.2952 85.8056C58.988 85.5656 58.5416 85.4456 57.9559 85.4456C57.2551 85.4456 56.7078 85.652 56.3142 86.0649C56.1318 86.2473 56.007 86.4489 55.9398 86.6697H55.0757C55.1717 86.3049 55.3445 85.9688 55.5941 85.6616C56.151 84.9896 56.9382 84.6535 57.9559 84.6535C58.7816 84.6535 59.4296 84.8456 59.9001 85.2296C60.3801 85.6136 60.6201 86.0697 60.6201 86.5977C60.6201 87.3658 60.1881 87.913 59.324 88.2394V88.2538C59.3432 88.2538 59.4008 88.273 59.4968 88.3114C59.5928 88.3402 59.7177 88.3978 59.8713 88.4842C60.0249 88.5706 60.1737 88.6811 60.3177 88.8155C60.4617 88.9403 60.5817 89.1131 60.6777 89.3339C60.7833 89.5547 60.8361 89.7947 60.8361 90.054C60.8361 90.6588 60.5865 91.158 60.0873 91.5517C59.5976 91.9453 58.8872 92.1421 57.9559 92.1421C56.7846 92.1421 55.9254 91.7725 55.3781 91.0332C55.1381 90.6972 54.9653 90.3228 54.8597 89.9099ZM63.1886 91.0764C62.4877 90.366 62.1373 89.4731 62.1373 88.3978C62.1373 87.3225 62.4877 86.4297 63.1886 85.7192C63.8894 85.0088 64.7631 84.6535 65.8096 84.6535C66.8561 84.6535 67.7297 85.0088 68.4306 85.7192C69.1314 86.4297 69.4819 87.3225 69.4819 88.3978C69.4819 89.4731 69.1314 90.366 68.4306 91.0764C67.7297 91.7869 66.8561 92.1421 65.8096 92.1421C64.7631 92.1421 63.8894 91.7869 63.1886 91.0764ZM63.8078 86.2809C63.2702 86.8377 63.0014 87.5434 63.0014 88.3978C63.0014 89.2523 63.2702 89.958 63.8078 90.5148C64.3455 91.0716 65.0127 91.3501 65.8096 91.3501C66.6064 91.3501 67.2737 91.0716 67.8113 90.5148C68.349 89.958 68.6178 89.2523 68.6178 88.3978C68.6178 87.5434 68.349 86.8377 67.8113 86.2809C67.2737 85.724 66.6064 85.4456 65.8096 85.4456C65.0127 85.4456 64.3455 85.724 63.8078 86.2809ZM71.2764 91.9981V84.7976H74.6606C75.3423 84.7976 75.8703 84.9704 76.2448 85.316C76.6288 85.6616 76.8208 86.1129 76.8208 86.6697C76.8208 87.3994 76.4608 87.8986 75.7407 88.1674V88.1818C75.7695 88.1818 75.8271 88.1962 75.9135 88.225C75.9999 88.2538 76.1103 88.3114 76.2448 88.3978C76.3888 88.4842 76.5232 88.5898 76.648 88.7147C76.7728 88.8395 76.8784 89.0123 76.9648 89.2331C77.0608 89.4539 77.1088 89.7035 77.1088 89.982C77.1088 90.5772 76.8928 91.062 76.4608 91.4365C76.0383 91.8109 75.4431 91.9981 74.675 91.9981H71.2764ZM72.1404 87.8218H74.6606C75.0831 87.8218 75.4047 87.7258 75.6255 87.5338C75.8463 87.3418 75.9567 87.0777 75.9567 86.7417C75.9567 85.9736 75.5247 85.5896 74.6606 85.5896H72.1404V87.8218ZM72.1404 91.206H74.6606C75.7167 91.206 76.2448 90.774 76.2448 89.9099C76.2448 89.0459 75.7167 88.6138 74.6606 88.6138H72.1404V91.206ZM79.4169 91.0764C78.7449 90.3564 78.4089 89.4635 78.4089 88.3978C78.4089 87.3322 78.7449 86.4441 79.4169 85.7336C80.089 85.0136 80.9051 84.6535 81.8651 84.6535C82.5468 84.6535 83.1228 84.8216 83.5933 85.1576C84.0637 85.484 84.3949 85.844 84.5869 86.2377H84.6013V84.7976H85.4654V91.9981H84.6013V90.558H84.5869C84.3949 90.9516 84.0637 91.3165 83.5933 91.6525C83.1228 91.9789 82.5468 92.1421 81.8651 92.1421C80.9051 92.1421 80.089 91.7869 79.4169 91.0764ZM80.0506 86.2953C79.5322 86.8521 79.2729 87.553 79.2729 88.3978C79.2729 89.2427 79.5322 89.9484 80.0506 90.5148C80.5786 91.0716 81.2075 91.3501 81.9371 91.3501C82.6476 91.3501 83.2668 91.0716 83.7949 90.5148C84.3325 89.9484 84.6013 89.2427 84.6013 88.3978C84.6013 87.553 84.3325 86.8521 83.7949 86.2953C83.2668 85.7288 82.6476 85.4456 81.9371 85.4456C81.2075 85.4456 80.5786 85.7288 80.0506 86.2953ZM86.6929 85.5896V84.7976H92.7413V85.5896H90.1491V91.9981H89.2851V85.5896H86.6929ZM94.4938 91.0764C93.8025 90.366 93.4569 89.4731 93.4569 88.3978C93.4569 87.3225 93.8025 86.4297 94.4938 85.7192C95.185 85.0088 96.0395 84.6535 97.0572 84.6535C98.0652 84.6535 98.9149 85.0088 99.6062 85.7192C100.307 86.4201 100.657 87.2889 100.657 88.3258V88.6859H94.321C94.3594 89.4443 94.6378 90.078 95.1562 90.5868C95.6747 91.0956 96.3083 91.3501 97.0572 91.3501C97.8828 91.3501 98.5597 91.086 99.0877 90.558C99.3373 90.3276 99.5246 90.0636 99.6494 89.7659H100.513C100.341 90.2172 100.096 90.6156 99.779 90.9612C99.0685 91.7485 98.1613 92.1421 97.0572 92.1421C96.0395 92.1421 95.185 91.7869 94.4938 91.0764ZM94.321 87.8938H99.7214C99.6446 87.1929 99.3565 86.6121 98.8573 86.1513C98.3677 85.6808 97.7676 85.4456 97.0572 85.4456C96.3467 85.4456 95.7419 85.676 95.2426 86.1369C94.7434 86.5977 94.4362 87.1833 94.321 87.8938ZM101.591 91.9981L103.607 84.7976H106.416L108.432 91.9981H107.568L105.768 85.5896H104.255L102.455 91.9981H101.591ZM109.867 91.9981V84.7976H110.731V87.3898H112.963C113.741 87.3898 114.365 87.6106 114.835 88.0522C115.315 88.4842 115.555 89.0315 115.555 89.6939C115.555 90.3564 115.315 90.9084 114.835 91.3501C114.365 91.7821 113.741 91.9981 112.963 91.9981H109.867ZM110.731 91.206H112.963C113.501 91.206 113.923 91.0668 114.23 90.7884C114.538 90.5004 114.691 90.1356 114.691 89.6939C114.691 89.2523 114.538 88.8923 114.23 88.6138C113.923 88.3258 113.501 88.1818 112.963 88.1818H110.731V91.206ZM117.138 91.9981V84.7976H118.002V87.9658H122.322V84.7976H123.186V91.9981H122.322V88.7579H118.002V91.9981H117.138ZM126.039 91.0764C125.338 90.366 124.987 89.4731 124.987 88.3978C124.987 87.3225 125.338 86.4297 126.039 85.7192C126.74 85.0088 127.613 84.6535 128.66 84.6535C129.706 84.6535 130.58 85.0088 131.281 85.7192C131.982 86.4297 132.332 87.3225 132.332 88.3978C132.332 89.4731 131.982 90.366 131.281 91.0764C130.58 91.7869 129.706 92.1421 128.66 92.1421C127.613 92.1421 126.74 91.7869 126.039 91.0764ZM126.658 86.2809C126.12 86.8377 125.852 87.5434 125.852 88.3978C125.852 89.2523 126.12 89.958 126.658 90.5148C127.196 91.0716 127.863 91.3501 128.66 91.3501C129.457 91.3501 130.124 91.0716 130.661 90.5148C131.199 89.958 131.468 89.2523 131.468 88.3978C131.468 87.5434 131.199 86.8377 130.661 86.2809C130.124 85.724 129.457 85.4456 128.66 85.4456C127.863 85.4456 127.196 85.724 126.658 86.2809ZM134.127 91.9981V84.7976H138.951V85.5896H134.991V91.9981H134.127ZM140.791 91.0764C140.091 90.366 139.74 89.4731 139.74 88.3978C139.74 87.3225 140.091 86.4297 140.791 85.7192C141.492 85.0088 142.366 84.6535 143.412 84.6535C144.459 84.6535 145.333 85.0088 146.033 85.7192C146.734 86.4297 147.085 87.3225 147.085 88.3978C147.085 89.4731 146.734 90.366 146.033 91.0764C145.333 91.7869 144.459 92.1421 143.412 92.1421C142.366 92.1421 141.492 91.7869 140.791 91.0764ZM141.411 86.2809C140.873 86.8377 140.604 87.5434 140.604 88.3978C140.604 89.2523 140.873 89.958 141.411 90.5148C141.948 91.0716 142.616 91.3501 143.412 91.3501C144.209 91.3501 144.877 91.0716 145.414 90.5148C145.952 89.958 146.221 89.2523 146.221 88.3978C146.221 87.5434 145.952 86.8377 145.414 86.2809C144.877 85.724 144.209 85.4456 143.412 85.4456C142.616 85.4456 141.948 85.724 141.411 86.2809ZM152.915 91.9981V84.7976H153.78V91.206H157.812V84.7976H158.676V91.206H159.756V93.7262H158.892V91.9981H152.915ZM161.732 91.0764C161.04 90.366 160.695 89.4731 160.695 88.3978C160.695 87.3225 161.04 86.4297 161.732 85.7192C162.423 85.0088 163.277 84.6535 164.295 84.6535C165.303 84.6535 166.153 85.0088 166.844 85.7192C167.545 86.4201 167.895 87.2889 167.895 88.3258V88.6859H161.559C161.597 89.4443 161.876 90.078 162.394 90.5868C162.913 91.0956 163.546 91.3501 164.295 91.3501C165.121 91.3501 165.798 91.086 166.326 90.558C166.575 90.3276 166.763 90.0636 166.887 89.7659H167.751C167.579 90.2172 167.334 90.6156 167.017 90.9612C166.306 91.7485 165.399 92.1421 164.295 92.1421C163.277 92.1421 162.423 91.7869 161.732 91.0764ZM161.559 87.8938H166.959C166.883 87.1929 166.595 86.6121 166.095 86.1513C165.606 85.6808 165.006 85.4456 164.295 85.4456C163.585 85.4456 162.98 85.676 162.481 86.1369C161.981 86.5977 161.674 87.1833 161.559 87.8938ZM169.693 91.9981V84.7976H170.557V87.9658H174.878V84.7976H175.742V91.9981H174.878V88.7579H170.557V91.9981H169.693ZM176.967 85.5896V84.7976H183.015V85.5896H180.423V91.9981H179.559V85.5896H176.967ZM184.235 94.7343V84.7976H185.099V86.2377H185.114C185.267 85.8536 185.589 85.4936 186.078 85.1576C186.568 84.8216 187.154 84.6535 187.835 84.6535C188.795 84.6535 189.611 85.0136 190.283 85.7336C190.956 86.4441 191.292 87.3322 191.292 88.3978C191.292 89.4635 190.956 90.3564 190.283 91.0764C189.611 91.7869 188.795 92.1421 187.835 92.1421C187.154 92.1421 186.568 91.9741 186.078 91.6381C185.589 91.3021 185.267 90.942 185.114 90.558H185.099V94.7343H184.235ZM185.891 86.2953C185.363 86.8521 185.099 87.553 185.099 88.3978C185.099 89.2427 185.363 89.9484 185.891 90.5148C186.429 91.0716 187.053 91.3501 187.763 91.3501C188.493 91.3501 189.117 91.0716 189.635 90.5148C190.163 89.9484 190.428 89.2427 190.428 88.3978C190.428 87.553 190.163 86.8521 189.635 86.2953C189.117 85.7288 188.493 85.4456 187.763 85.4456C187.053 85.4456 186.429 85.7288 185.891 86.2953ZM193.599 91.0764C192.927 90.3564 192.591 89.4635 192.591 88.3978C192.591 87.3322 192.927 86.4441 193.599 85.7336C194.271 85.0136 195.087 84.6535 196.047 84.6535C196.729 84.6535 197.305 84.8216 197.775 85.1576C198.246 85.484 198.577 85.844 198.769 86.2377H198.784V84.7976H199.648V91.9981H198.784V90.558H198.769C198.577 90.9516 198.246 91.3165 197.775 91.6525C197.305 91.9789 196.729 92.1421 196.047 92.1421C195.087 92.1421 194.271 91.7869 193.599 91.0764ZM194.233 86.2953C193.714 86.8521 193.455 87.553 193.455 88.3978C193.455 89.2427 193.714 89.9484 194.233 90.5148C194.761 91.0716 195.39 91.3501 196.119 91.3501C196.83 91.3501 197.449 91.0716 197.977 90.5148C198.515 89.9484 198.784 89.2427 198.784 88.3978C198.784 87.553 198.515 86.8521 197.977 86.2953C197.449 85.7288 196.83 85.4456 196.119 85.4456C195.39 85.4456 194.761 85.7288 194.233 86.2953ZM205.847 83.7895V81.9173H206.711V83.7895L206.567 85.4456H205.991L205.847 83.7895ZM208.08 83.7895V81.9173H208.944V83.7895L208.8 85.4456H208.224L208.08 83.7895ZM211.255 91.9981V81.9173H218.959V91.9981H218.023V82.7814H212.191V91.9981H211.255ZM221.938 91.0764C221.247 90.366 220.901 89.4731 220.901 88.3978C220.901 87.3225 221.247 86.4297 221.938 85.7192C222.629 85.0088 223.484 84.6535 224.501 84.6535C225.509 84.6535 226.359 85.0088 227.05 85.7192C227.751 86.4201 228.102 87.2889 228.102 88.3258V88.6859H221.765C221.803 89.4443 222.082 90.078 222.6 90.5868C223.119 91.0956 223.752 91.3501 224.501 91.3501C225.327 91.3501 226.004 91.086 226.532 90.558C226.781 90.3276 226.969 90.0636 227.093 89.7659H227.958C227.785 90.2172 227.54 90.6156 227.223 90.9612C226.513 91.7485 225.605 92.1421 224.501 92.1421C223.484 92.1421 222.629 91.7869 221.938 91.0764ZM221.765 87.8938H227.166C227.089 87.1929 226.801 86.6121 226.301 86.1513C225.812 85.6808 225.212 85.4456 224.501 85.4456C223.791 85.4456 223.186 85.676 222.687 86.1369C222.188 86.5977 221.88 87.1833 221.765 87.8938ZM229.899 94.7343V84.7976H230.764V86.2377H230.778C230.932 85.8536 231.253 85.4936 231.743 85.1576C232.232 84.8216 232.818 84.6535 233.5 84.6535C234.46 84.6535 235.276 85.0136 235.948 85.7336C236.62 86.4441 236.956 87.3322 236.956 88.3978C236.956 89.4635 236.62 90.3564 235.948 91.0764C235.276 91.7869 234.46 92.1421 233.5 92.1421C232.818 92.1421 232.232 91.9741 231.743 91.6381C231.253 91.3021 230.932 90.942 230.778 90.558H230.764V94.7343H229.899ZM231.556 86.2953C231.028 86.8521 230.764 87.553 230.764 88.3978C230.764 89.2427 231.028 89.9484 231.556 90.5148C232.093 91.0716 232.717 91.3501 233.428 91.3501C234.157 91.3501 234.781 91.0716 235.3 90.5148C235.828 89.9484 236.092 89.2427 236.092 88.3978C236.092 87.553 235.828 86.8521 235.3 86.2953C234.781 85.7288 234.157 85.4456 233.428 85.4456C232.717 85.4456 232.093 85.7288 231.556 86.2953ZM239.278 91.0764C238.596 90.3564 238.255 89.4635 238.255 88.3978C238.255 87.3322 238.596 86.4441 239.278 85.7336C239.969 85.0136 240.804 84.6535 241.784 84.6535C242.926 84.6535 243.834 85.076 244.506 85.9208C244.803 86.2857 245.024 86.7033 245.168 87.1737H244.304C244.17 86.8377 243.992 86.5497 243.771 86.3097C243.272 85.7336 242.609 85.4456 241.784 85.4456C241.054 85.4456 240.425 85.7288 239.897 86.2953C239.379 86.8521 239.12 87.553 239.12 88.3978C239.12 89.2427 239.379 89.9484 239.897 90.5148C240.425 91.0716 241.054 91.3501 241.784 91.3501C242.619 91.3501 243.301 91.038 243.829 90.414C244.078 90.126 244.261 89.8139 244.376 89.4779H245.24C245.096 89.9676 244.87 90.414 244.563 90.8172C243.834 91.7005 242.907 92.1421 241.784 92.1421C240.804 92.1421 239.969 91.7869 239.278 91.0764ZM247.505 91.0764C246.814 90.366 246.469 89.4731 246.469 88.3978C246.469 87.3225 246.814 86.4297 247.505 85.7192C248.197 85.0088 249.051 84.6535 250.069 84.6535C251.077 84.6535 251.927 85.0088 252.618 85.7192C253.319 86.4201 253.669 87.2889 253.669 88.3258V88.6859H247.333C247.371 89.4443 247.649 90.078 248.168 90.5868C248.686 91.0956 249.32 91.3501 250.069 91.3501C250.895 91.3501 251.571 91.086 252.099 90.558C252.349 90.3276 252.536 90.0636 252.661 89.7659H253.525C253.352 90.2172 253.108 90.6156 252.791 90.9612C252.08 91.7485 251.173 92.1421 250.069 92.1421C249.051 92.1421 248.197 91.7869 247.505 91.0764ZM247.333 87.8938H252.733C252.656 87.1929 252.368 86.6121 251.869 86.1513C251.379 85.6808 250.779 85.4456 250.069 85.4456C249.358 85.4456 248.754 85.676 248.254 86.1369C247.755 86.5977 247.448 87.1833 247.333 87.8938ZM255.467 91.9981V84.7976H256.331V90.63L256.317 90.774H256.331L260.507 84.7976H261.516V91.9981H260.651V86.1657L260.666 86.0216H260.651L256.475 91.9981H255.467ZM256.475 82.0613H257.267C257.267 82.359 257.373 82.6038 257.584 82.7958C257.795 82.9782 258.098 83.0694 258.491 83.0694C258.885 83.0694 259.187 82.9782 259.399 82.7958C259.61 82.6038 259.715 82.359 259.715 82.0613H260.507C260.507 82.5414 260.32 82.9494 259.946 83.2854C259.571 83.6215 259.087 83.7895 258.491 83.7895C257.896 83.7895 257.411 83.6215 257.037 83.2854C256.662 82.9494 256.475 82.5414 256.475 82.0613ZM263.677 83.7895V81.9173H264.541V83.7895L264.397 85.4456H263.821L263.677 83.7895ZM265.909 83.7895V81.9173H266.773V83.7895L266.629 85.4456H266.053L265.909 83.7895Z" fill="white"/>
</svg>
